<svg id="レイヤー_1" data-name="レイヤー 1" xmlns="http://www.w3.org/2000/svg" viewBox="0 0 27.86 52.58"><defs><style>.cls-1{fill:#f7bea2;}.cls-2{fill:#c0e5f4;}.cls-3{fill:#fff4ba;}.cls-4{fill:#c6da5a;}.cls-5{fill:#f9c06f;}</style></defs><title>background</title><g id="Cover_2"><path class="cls-1" d="M1.85,3V9.67a.64.64,0,0,0,1.28,0V3A.64.64,0,0,0,1.85,3Z"/><path class="cls-2" d="M19.84,42.56l0,7.77a.64.64,0,0,0,.63.64.64.64,0,0,0,.64-.64l0-7.77a.64.64,0,1,0-1.27,0Z"/><path class="cls-3" d="M2.64,20.93v9a.37.37,0,1,0,.73,0v-9a.37.37,0,1,0-.73,0Z"/><path class="cls-4" d="M21,13.49v9a.37.37,0,0,0,.74,0v-9a.37.37,0,1,0-.74,0Z"/><path class="cls-2" d="M15.26.43v9a.36.36,0,0,0,.37.37A.37.37,0,0,0,16,9.47v-9a.37.37,0,0,0-.74,0Z"/><path class="cls-4" d="M14.67,30.48l-.06,9.76a.21.21,0,1,0,.42,0l.06-9.76a.21.21,0,0,0-.21-.21A.21.21,0,0,0,14.67,30.48Z"/><path class="cls-3" d="M25.57,3.28v9.05a.37.37,0,0,0,.74,0v-9a.37.37,0,0,0-.74,0Z"/><path class="cls-1" d="M25.49,34v6.64a.64.64,0,0,1-1.27,0V34a.64.64,0,1,1,1.27,0Z"/><path class="cls-5" d="M11,14.79v9.05a.37.37,0,0,1-.73,0v-9a.37.37,0,1,1,.73,0Z"/><path class="cls-1" d="M9.92,41v6.65a.64.64,0,0,1-1.27,0V41a.64.64,0,0,1,1.27,0Z"/><path class="cls-2" d="M3.28,43.17v9a.37.37,0,1,1-.73,0v-9a.37.37,0,1,1,.73,0Z"/></g></svg>