<svg id="logo" xmlns="http://www.w3.org/2000/svg" viewBox="0 0 170.89 138.82"><defs><style>.cls-1{fill:#42423d;}.cls-2{fill:#6fb23b;}.cls-3{fill:#f8bf6f;}.cls-4{fill:#fff4ba;}.cls-5{fill:#c6da5a;}.cls-6{fill:#bfe4f5;}.cls-7{fill:#f6bda1;}.cls-8{fill:#eb6e73;}.cls-9{fill:#f6c5c6;}.cls-10{fill:#fff;}</style></defs><title>logo</title><path class="cls-1" d="M98.36,90.62a2.71,2.71,0,0,1-3,2.87,3.19,3.19,0,0,1-2.89-3.37,2.63,2.63,0,0,1,2.89-2.88A3.34,3.34,0,0,1,98.36,90.62ZM57.22,84.19a2.7,2.7,0,0,0-2.9,2.94,3.12,3.12,0,0,0,2.9,3.31,2.77,2.77,0,0,0,3-2.94A3.25,3.25,0,0,0,57.22,84.19Zm70.91,5.06a3,3,0,0,0-3,3.07,3.06,3.06,0,0,0,3,3.18A2.83,2.83,0,0,0,131,92.43,3,3,0,0,0,128.13,89.25Zm41.5-37.11L148.18,74.57a53.42,53.42,0,0,0,10-2.15c2.09-.71,4.18-2.12,4.18.37,0,8.45,0,20.06,0,25.62a1.62,1.62,0,0,1-.55,1.35c-8.41,5.95-25.12,6.7-43.18,5.71L87.74,137.76a3.37,3.37,0,0,1-4.9,0L46.1,99.2c-12.49-.42-24.75.14-33.35,3-2.12.72-4.18,2.16-4.19-.49,0-8.48,0-20.63,0-25.49a1.62,1.62,0,0,1,.56-1.35A28.44,28.44,0,0,1,19,70.8L1.25,52.14A5.08,5.08,0,0,1,.56,46.5L25.38,3.08A6.8,6.8,0,0,1,30.69,0H140.17a6.78,6.78,0,0,1,5.31,3.08L170.32,46.5A5,5,0,0,1,169.63,52.14ZM91.85,8.08l25.89,34.27c1.18,1.55,2.81,1.38,3.64-.38L137.1,8.46a2.08,2.08,0,0,0-2-3.21H93.26C91.31,5.25,90.68,6.52,91.85,8.08Zm23.86,46.77a2.24,2.24,0,0,0-2.23-3.3l-56.17,0a2.23,2.23,0,0,0-2.22,3.29L61.2,70.08c6.73.56,13.59,1.26,20.32,1.94s16.19,1.72,26.3,2.49ZM106.52,93.1a2,2,0,0,0-2.18,2,2.32,2.32,0,0,0,2.18,2.33,2,2,0,0,0,2.21-2A2.4,2.4,0,0,0,106.52,93.1Zm-8.16,2.59v1l3.83.33V84.92l-3.83-.33v1a5.86,5.86,0,0,0-3.74-1.64c-3.18-.27-5.86,2.09-5.86,5.88a6.66,6.66,0,0,0,5.86,6.9A5.05,5.05,0,0,0,98.36,95.69ZM83.13,88.6v6.73l3.81.31V88.09a5.06,5.06,0,0,0-4.6-5.25,4.77,4.77,0,0,0-4.26,1.7,4.9,4.9,0,0,0-3.93-2.37,4.21,4.21,0,0,0-3.54,1.18v-1.1l-3.83-.32V94l3.83.31V88.4c0-2,.91-3,2.3-2.87a2.25,2.25,0,0,1,2,2.4v6.73l3.84.31V89.06c0-2,.93-3,2.34-2.86A2.25,2.25,0,0,1,83.13,88.6Zm.18-79.07L56.93,44.45c-1.17,1.55-.54,2.83,1.41,2.83h54.2c1.95,0,2.58-1.27,1.41-2.83L87.58,9.53A2.53,2.53,0,0,0,83.31,9.53ZM33.79,8.46,49.5,42c.83,1.76,2.47,1.93,3.65.38L79,8.08c1.18-1.56.54-2.83-1.41-2.83H35.82C33.87,5.25,33,6.69,33.79,8.46ZM9.52,47h34a2.08,2.08,0,0,0,2-3.21l-15.52-33C29.22,9,27.75,9,26.78,10.65l-19,33.29C6.77,45.64,7.57,47,9.52,47ZM25,69.74c8.94-1.15,19.88-.87,31.41,0L50.3,54.57a5.68,5.68,0,0,0-4.87-3.29H10.85c-1.95,0-2.44,1.15-1.1,2.56ZM50.68,80.26V76.8l-14.36-.37v3.46l5.21.13V92.66l3.94.1V80.12Zm5.75,13.4a5.12,5.12,0,0,0,3.74-1.09v1l3.84.25V81.72l-3.84-.24v1a5.75,5.75,0,0,0-3.74-1.56c-3.19-.21-5.87,2.22-5.87,6A6.49,6.49,0,0,0,56.43,93.66Zm21.31,29.4-8.93-22.29c-4.87-.47-10.08-.91-15.37-1.23l23.17,24.25C78,125.2,78.47,124.87,77.74,123.06ZM96.13,103.6c-5.44-.55-10.75-1.14-15.72-1.65l-6.72-.7L84,127.1c.73,1.81,1.92,1.81,2.65,0Zm16,1.45c-3.83-.29-7.67-.63-11.48-1l-7.74,19.19c-.72,1.81-.21,2.14,1.13.73Zm7.6-19a3.36,3.36,0,0,0-.87-.15,4.34,4.34,0,0,0-4.15,2.22v-2.3l-3.83-.23V97.64l3.83.22V94.09c0-3.12,1.47-4.42,4.15-4.26l.7,0Zm15.1,6.46a6.16,6.16,0,0,0-5.89-6.5,5.32,5.32,0,0,0-3.75,1.26v-6.2L121.33,81V98.28l3.84.07v-1a5.54,5.54,0,0,0,3.75,1.39C132.12,98.84,134.81,96.32,134.81,92.5ZM160,51.28h-34.5a5.69,5.69,0,0,0-4.88,3.28l-8.17,20.27a239.06,239.06,0,0,0,28.18.42l20.47-21.41C162.4,52.43,161.91,51.28,160,51.28Zm3.19-7.34-19-33.29c-1-1.69-2.44-1.63-3.27.13l-15.52,33a2.08,2.08,0,0,0,2,3.21h34C163.32,47,164.12,45.64,163.15,43.94Z"/><path class="cls-2" d="M93.26,5.25h41.8a2.08,2.08,0,0,1,2,3.21L121.38,42c-.83,1.76-2.46,1.93-3.64.38L91.85,8.08C90.68,6.52,91.31,5.25,93.26,5.25Z"/><path class="cls-3" d="M35.82,5.25h41.8c1.95,0,2.59,1.27,1.41,2.83L53.15,42.35C52,43.9,50.33,43.73,49.5,42L33.79,8.46C33,6.69,33.87,5.25,35.82,5.25Z"/><path class="cls-4" d="M161.37,47h-34a2.08,2.08,0,0,1-2-3.21l15.52-33c.83-1.76,2.3-1.82,3.27-.13l19,33.29C164.12,45.64,163.32,47,161.37,47Z"/><path class="cls-5" d="M87.58,9.53,114,44.46c1.17,1.56.54,2.83-1.41,2.83H58.34c-2,0-2.58-1.28-1.41-2.83L83.31,9.53A2.53,2.53,0,0,1,87.58,9.53Z"/><path class="cls-6" d="M7.73,43.94,26.78,10.65c1-1.69,2.44-1.63,3.27.13l15.52,33a2.08,2.08,0,0,1-2,3.21h-34C7.57,47,6.77,45.64,7.73,43.94Z"/><path class="cls-7" d="M161.06,53.84,140.59,75.25a239.06,239.06,0,0,1-28.18-.42l8.17-20.27a5.69,5.69,0,0,1,4.88-3.28H160C161.91,51.28,162.4,52.43,161.06,53.84Z"/><path class="cls-7" d="M94,124c-1.34,1.41-1.85,1.08-1.13-.73l7.74-19.19c3.81.37,7.65.71,11.48,1Z"/><path class="cls-8" d="M107.82,74.51c-10.11-.77-19.51-1.8-26.3-2.49S67.93,70.64,61.2,70.08L55.09,54.82a2.23,2.23,0,0,1,2.22-3.29l56.17,0a2.24,2.24,0,0,1,2.23,3.3Z"/><path class="cls-8" d="M86.69,127.1c-.73,1.81-1.92,1.81-2.65,0L73.69,101.25l6.72.7c5,.51,10.28,1.1,15.72,1.65Z"/><path class="cls-9" d="M9.75,53.84c-1.34-1.41-.85-2.56,1.1-2.56H45.43a5.68,5.68,0,0,1,4.87,3.29L56.36,69.7c-11.53-.83-22.47-1.11-31.41,0Z"/><path class="cls-9" d="M76.61,123.79,53.44,99.54c5.29.32,10.5.76,15.37,1.23l8.93,22.29C78.47,124.87,78,125.2,76.61,123.79Z"/><path class="cls-10" d="M60.17,82.44a5.75,5.75,0,0,0-3.74-1.56c-3.19-.21-5.87,2.22-5.87,6a6.49,6.49,0,0,0,5.87,6.77,5.12,5.12,0,0,0,3.74-1.09v1l3.84.25V81.72l-3.84-.24Zm-3,8a3.12,3.12,0,0,1-2.9-3.31,2.7,2.7,0,0,1,2.9-2.94,3.25,3.25,0,0,1,3,3.31A2.77,2.77,0,0,1,57.22,90.44Zm29.72-2.35v7.55l-3.81-.31V88.6a2.25,2.25,0,0,0-2-2.4c-1.41-.11-2.34.84-2.34,2.86V95l-3.84-.31V87.93a2.25,2.25,0,0,0-2-2.4c-1.39-.11-2.3.85-2.3,2.87v5.9L66.78,94V81.93l3.83.32v1.1a4.21,4.21,0,0,1,3.54-1.18,4.9,4.9,0,0,1,3.93,2.37,4.77,4.77,0,0,1,4.26-1.7A5.06,5.06,0,0,1,86.94,88.09ZM50.68,80.26l-5.21-.14V92.76l-3.94-.1V80l-5.21-.13V76.43l14.36.37Zm47.68,5.29a5.86,5.86,0,0,0-3.74-1.64c-3.18-.27-5.86,2.09-5.86,5.88a6.66,6.66,0,0,0,5.86,6.9,5.05,5.05,0,0,0,3.74-1v1l3.83.33V84.92l-3.83-.33Zm-3,7.94a3.19,3.19,0,0,1-2.89-3.37,2.63,2.63,0,0,1,2.89-2.88,3.34,3.34,0,0,1,3,3.38A2.71,2.71,0,0,1,95.41,93.49ZM128.92,86a5.32,5.32,0,0,0-3.75,1.26v-6.2L121.33,81V98.28l3.84.07v-1a5.54,5.54,0,0,0,3.75,1.39c3.2.06,5.89-2.46,5.89-6.28A6.16,6.16,0,0,0,128.92,86Zm-.79,9.5a3.06,3.06,0,0,1-3-3.18,2.94,2.94,0,1,1,5.87.11A2.83,2.83,0,0,1,128.13,95.5Zm-9.29-9.61a3.36,3.36,0,0,1,.87.15l-.17,3.83-.7,0c-2.68-.16-4.15,1.14-4.15,4.26v3.77l-3.83-.22V85.58l3.83.23v2.3A4.34,4.34,0,0,1,118.84,85.89Zm-10.11,9.54a2,2,0,0,1-2.21,2,2.32,2.32,0,0,1-2.18-2.33,2,2,0,0,1,2.18-2A2.4,2.4,0,0,1,108.73,95.43Z"/></svg>