<?xml version="1.0" standalone="no"?>
<!DOCTYPE svg PUBLIC "-//W3C//DTD SVG 20010904//EN"
 "http://www.w3.org/TR/2001/REC-SVG-20010904/DTD/svg10.dtd">
<svg version="1.0" xmlns="http://www.w3.org/2000/svg"
 width="512.000000pt" height="512.000000pt" viewBox="0 0 512.000000 512.000000"
 preserveAspectRatio="xMidYMid meet">
<metadata>
Created by potrace 1.11, written by Peter Selinger 2001-2013
</metadata>
<g transform="translate(0.000000,512.000000) scale(0.100000,-0.100000)"
fill="#000000" stroke="none">
<path d="M952 4654 c-58 -15 -144 -67 -181 -110 -19 -21 -151 -240 -151 -249
0 -1 -36 -64 -80 -140 -44 -76 -80 -138 -80 -140 0 -1 -23 -42 -52 -91 -200
-347 -384 -673 -394 -703 -7 -21 -12 -69 -10 -113 5 -128 15 -143 309 -446
l72 -74 -30 -21 c-55 -40 -93 -89 -106 -135 -17 -61 -17 -797 0 -860 24 -86
111 -151 202 -152 25 0 85 14 134 30 168 57 349 80 655 85 l145 2 35 -37 c54
-57 328 -346 390 -410 30 -32 93 -98 140 -147 497 -523 472 -503 611 -503 137
0 101 -30 589 480 91 95 187 195 214 224 27 28 82 86 123 128 l75 78 242 0
c307 1 356 4 566 41 131 23 234 55 337 106 106 52 158 107 178 188 11 48 7
800 -5 846 -6 22 -26 57 -45 78 l-34 37 67 70 c249 260 252 265 252 415 0 78
-3 93 -31 145 -41 77 -17 34 -314 552 -143 250 -273 477 -289 505 -115 209
-151 252 -256 301 l-65 31 -1580 1 c-1314 1 -1589 -1 -1633 -12z"/>
</g>
</svg>
