<?xml version="1.0" encoding="UTF-8" standalone="no"?><!DOCTYPE svg PUBLIC "-//W3C//DTD SVG 1.1//EN" "http://www.w3.org/Graphics/SVG/1.1/DTD/svg11.dtd"><svg width="100%" height="100%" viewBox="0 0 76 28" version="1.1" xmlns="http://www.w3.org/2000/svg" xmlns:xlink="http://www.w3.org/1999/xlink" xml:space="preserve" xmlns:serif="http://www.serif.com/" style="fill-rule:evenodd;clip-rule:evenodd;stroke-linejoin:round;stroke-miterlimit:1.41421;"><clipPath id="_clip1"><rect x="0" y="0" width="75.25" height="28"/></clipPath><g clip-path="url(#_clip1)"><g id="logo"><rect x="0.198" y="23.65" width="74.782" height="4.35" style="fill:#ca171d;"/><path d="M25.401,13.129c-0.015,0.002 -0.03,0.003 -0.045,0.003c-0.203,0 -0.371,-0.165 -0.371,-0.366c0,-0.037 0.006,-0.074 0.018,-0.11l2.028,-11.231c0.04,-0.2 0.181,-0.367 0.374,-0.443c1.618,-0.615 3.332,-0.947 5.066,-0.982c3.756,0 5.454,2.361 4.832,5.852l-1.246,6.878c-0.023,0.235 -0.235,0.411 -0.473,0.394l-2.862,0c-0.005,0 -0.01,0 -0.015,0c-0.214,0 -0.39,-0.174 -0.39,-0.385c0,-0.028 0.003,-0.056 0.009,-0.083l1.246,-7.178c0.298,-1.549 -0.248,-2.262 -1.569,-2.262c-0.546,-0.006 -1.088,0.094 -1.594,0.295l-1.644,9.219c-0.014,0.221 -0.202,0.396 -0.426,0.396c-0.016,0 -0.032,0 -0.048,-0.002l-2.89,0.005Z" style="fill:#004b8f;fill-rule:nonzero;"/><path d="M63.222,13.129c-0.014,0.002 -0.028,0.003 -0.043,0.003c-0.203,0 -0.37,-0.165 -0.37,-0.366c0,-0.036 0.005,-0.071 0.015,-0.105l2.043,-11.233c0.04,-0.201 0.181,-0.368 0.373,-0.443c1.614,-0.614 3.323,-0.948 5.052,-0.985c3.76,0 5.454,2.361 4.83,5.852l-1.246,6.878c-0.023,0.235 -0.235,0.411 -0.474,0.394l-2.859,0c-0.006,0 -0.011,0 -0.017,0c-0.214,0 -0.39,-0.174 -0.39,-0.385c0,-0.028 0.003,-0.056 0.009,-0.083l1.245,-7.178c0.299,-1.549 -0.248,-2.262 -1.569,-2.262c-0.545,-0.006 -1.087,0.094 -1.594,0.295l-1.644,9.219c-0.013,0.221 -0.201,0.396 -0.425,0.396c-0.016,0 -0.032,0 -0.048,-0.002l-2.888,0.005Z" style="fill:#004b8f;fill-rule:nonzero;"/><path d="M46.26,3.274l0.097,0.022c0.411,0.085 0.813,0.208 1.201,0.366c0.279,0.118 0.474,0.074 0.574,-0.193l0.778,-1.975c0.075,-0.217 0.075,-0.385 -0.073,-0.482c-0.401,-0.229 -0.824,-0.421 -1.262,-0.572c-0.248,-0.088 -0.51,-0.168 -0.78,-0.239c-0.732,-0.16 -1.482,-0.222 -2.23,-0.184c-2.675,0.14 -4.52,1.216 -5.016,3.521c-0.557,2.655 1.394,4.105 3.835,4.598c0.995,0.22 1.867,0.418 1.694,1.18c-0.125,0.567 -0.722,0.935 -1.917,0.935c-1.168,0.009 -2.306,-0.363 -3.238,-1.056c-0.072,-0.06 -0.163,-0.093 -0.256,-0.093c-0.14,0 -0.27,0.073 -0.341,0.192l-1.418,1.926c-0.067,0.071 -0.104,0.165 -0.104,0.263c0,0.131 0.067,0.254 0.179,0.326c1.368,1.1 2.987,1.65 5.055,1.65c3.113,0 5.328,-1.205 5.827,-3.81c0.524,-2.878 -1.867,-4.056 -3.784,-4.474c-1.196,-0.275 -1.993,-0.492 -1.842,-1.23c0.1,-0.613 0.671,-0.811 1.594,-0.811c0.433,-0.001 0.865,0.041 1.29,0.126l0.137,0.014Z" style="fill:#004b8f;fill-rule:nonzero;"/><path d="M8.447,3.274l0.097,0.022c0.414,0.085 0.819,0.207 1.21,0.366c0.278,0.118 0.473,0.074 0.574,-0.193l0.777,-1.975c0.075,-0.217 0.075,-0.385 -0.072,-0.482c-0.407,-0.23 -0.836,-0.422 -1.279,-0.572c-0.248,-0.088 -0.51,-0.168 -0.781,-0.239c-0.731,-0.16 -1.481,-0.222 -2.229,-0.184c-2.667,0.14 -4.515,1.216 -4.997,3.524c-0.557,2.655 1.394,4.105 3.835,4.597c0.995,0.22 1.867,0.419 1.694,1.181c-0.125,0.566 -0.722,0.935 -1.917,0.935c-1.168,0.008 -2.306,-0.365 -3.238,-1.059c-0.072,-0.06 -0.162,-0.093 -0.256,-0.093c-0.14,0 -0.27,0.073 -0.341,0.192l-1.418,1.926c-0.067,0.071 -0.104,0.165 -0.104,0.263c0,0.131 0.067,0.254 0.179,0.326c1.368,1.1 2.988,1.65 5.055,1.65c3.124,-0.011 5.326,-1.216 5.825,-3.829c0.523,-2.87 -1.865,-4.05 -3.785,-4.469c-1.195,-0.269 -1.981,-0.484 -1.842,-1.227c0.1,-0.613 0.672,-0.811 1.594,-0.811c0.433,-0.001 0.866,0.041 1.29,0.126l0.129,0.025Z" style="fill:#004b8f;fill-rule:nonzero;"/><path d="M19.507,0c-0.7,0 -1.399,0.055 -2.09,0.165c-0.843,0.136 -1.661,0.394 -2.427,0.768c-0.156,0.09 -0.165,0.261 -0.103,0.487l0.652,2.058c0.026,0.161 0.169,0.281 0.335,0.281c0.043,0 0.085,-0.007 0.125,-0.023c0.485,-0.173 0.987,-0.294 1.499,-0.36l0.05,0c0.37,-0.049 0.742,-0.074 1.115,-0.074c1.569,0 1.917,0.663 1.694,1.868l-0.05,0.393c-0.698,-0.132 -1.407,-0.197 -2.118,-0.195c-3.188,0 -5.228,1.056 -5.652,3.442c-0.509,2.671 1.257,4.638 4.741,4.638c1.764,-0.004 3.515,-0.295 5.183,-0.861c0.206,-0.07 0.353,-0.253 0.373,-0.468l1.115,-6.22c0.677,-3.698 -1.064,-5.899 -4.442,-5.899Zm-1.363,10.961c-0.938,0 -1.711,-0.762 -1.711,-1.689c0,-0.927 0.773,-1.689 1.711,-1.689c0.939,0 1.711,0.762 1.711,1.689c0,0.927 -0.772,1.689 -1.711,1.689Z" style="fill:#004b8f;fill-rule:nonzero;"/><path d="M57.32,0c-0.7,0 -1.399,0.055 -2.09,0.165c-0.843,0.136 -1.661,0.394 -2.427,0.768c-0.156,0.09 -0.165,0.261 -0.103,0.487l0.652,2.058c0.027,0.161 0.169,0.281 0.335,0.281c0.043,0 0.085,-0.007 0.125,-0.023c0.485,-0.173 0.987,-0.294 1.499,-0.36l0.05,0c0.37,-0.049 0.742,-0.074 1.115,-0.074c1.569,0 1.917,0.663 1.694,1.868l-0.05,0.393c-0.698,-0.132 -1.407,-0.197 -2.118,-0.195c-3.188,0 -5.228,1.056 -5.651,3.442c-0.499,2.679 1.27,4.647 4.757,4.647c1.762,-0.005 3.513,-0.296 5.18,-0.862c0.206,-0.07 0.353,-0.253 0.373,-0.467l1.115,-6.221c0.675,-3.706 -1.07,-5.907 -4.456,-5.907Zm-1.354,10.961c-0.936,-0.004 -1.703,-0.765 -1.703,-1.689c0,-0.927 0.773,-1.689 1.711,-1.689c0.939,0 1.711,0.762 1.711,1.689c0,0 0,0 0,0c0,0.927 -0.772,1.689 -1.711,1.689c-0.003,0 -0.005,0 -0.008,0Z" style="fill:#004b8f;fill-rule:nonzero;"/></g></g></svg>