<?xml version="1.0" encoding="utf-8"?>
<!-- Generator: Adobe Illustrator 23.0.1, SVG Export Plug-In . SVG Version: 6.00 Build 0)  -->
<svg version="1.1" id="レイヤー_1" xmlns="http://www.w3.org/2000/svg" xmlns:xlink="http://www.w3.org/1999/xlink" x="0px"
	 y="0px" viewBox="0 0 184.25 152.18" style="enable-background:new 0 0 184.25 152.18;" xml:space="preserve">
<style type="text/css">
	.st0{fill:#FFFFFF;}
	.st1{fill:#42423D;}
	.st2{fill:#6FB33B;}
	.st3{fill:#F9C06F;}
	.st4{fill:#FFF4BB;}
	.st5{fill:#C6DA5B;}
	.st6{fill:#C0E5F5;}
	.st7{fill:#F7BFA2;}
	.st8{fill:#EC6E73;}
	.st9{fill:#F7C6C7;}
</style>
<path class="st0" d="M182.81,49.86L157.97,6.44C155.8,2.65,151.23,0,146.86,0H37.37C33,0,28.43,2.65,26.26,6.44L1.44,49.86
	c-1.18,2.06-1.66,4.56-1.36,7.05c0.3,2.49,1.37,4.8,3.01,6.52l10.86,11.4c-0.72,0.41-1.4,0.85-2.05,1.31
	c-0.02,0.01-0.04,0.03-0.05,0.04c-2.08,1.5-3.32,4.03-3.32,6.77c0,3.91,0.01,12.52,0.02,20.12l0.01,5.37
	c0.01,5.39,3.88,8.21,7.7,8.21c1.84,0,3.33-0.6,4.53-1.09c0.3-0.12,0.58-0.23,0.79-0.31c5.54-1.87,13.68-2.82,24.21-2.82
	c1.3,0,2.66,0.01,4.05,0.04l34.85,36.56c1.9,1.99,4.55,3.13,7.29,3.13c2.73,0,5.38-1.14,7.28-3.12l28.77-30.08
	c3.39,0.15,6.53,0.22,9.52,0.22c7.52,0,13.78-0.47,19.14-1.43c6.63-1.19,11.75-3.11,15.66-5.88c2.11-1.49,3.37-4.04,3.37-6.8
	c0-4.46-0.01-12.86-0.02-20.28l-0.01-5.34c0-2.01-0.56-3.75-1.65-5.17c-0.49-0.64-1.07-1.19-1.72-1.63l8.83-9.23
	c1.64-1.72,2.71-4.03,3.02-6.52C184.47,54.43,183.99,51.93,182.81,49.86z"/>
<path class="st1" d="M105.04,97.3c0,1.87-1.39,3-2.94,2.87c-1.67-0.14-2.9-1.5-2.9-3.37c0-1.85,1.22-3.02,2.9-2.87
	C103.65,94.06,105.04,95.45,105.04,97.3z M63.91,90.88c-1.68-0.11-2.9,1.09-2.9,2.94c0,1.87,1.22,3.2,2.9,3.31
	c1.56,0.1,2.95-1.06,2.95-2.94C66.86,92.34,65.47,90.98,63.91,90.88z M134.81,95.94c-1.56-0.03-2.95,1.22-2.95,3.07
	c0,1.87,1.39,3.15,2.95,3.18c1.68,0.03,2.91-1.2,2.91-3.07C137.72,97.26,136.49,95.97,134.81,95.94z M176.31,58.82l-21.45,22.43
	c3.74-0.49,7.11-1.19,9.96-2.15c2.1-0.71,4.18-2.12,4.18,0.37c0.01,8.44,0.04,20.05,0.03,25.61c0,0.6-0.21,1.1-0.55,1.35
	c-8.41,5.96-25.12,6.71-43.18,5.71l-30.88,32.29c-1.35,1.41-3.55,1.41-4.9,0l-36.75-38.56c-12.48-0.41-24.75,0.14-33.35,3.05
	c-2.11,0.72-4.18,2.16-4.18-0.5c-0.01-8.47-0.04-20.62-0.03-25.49c0-0.6,0.21-1.1,0.55-1.35c2.62-1.85,6-3.19,9.94-4.12L7.93,58.83
	c-1.35-1.41-1.65-3.95-0.69-5.65L32.06,9.76c0.97-1.69,3.36-3.08,5.31-3.08h109.49c1.95,0,4.34,1.39,5.31,3.08L177,53.18
	C177.97,54.88,177.66,57.41,176.31,58.82z M98.54,14.76l25.89,34.27c1.18,1.56,2.81,1.38,3.64-0.38l15.72-33.51
	c0.83-1.77-0.09-3.21-2.04-3.21h-41.8C97.99,11.93,97.36,13.21,98.54,14.76z M122.39,61.53c0.73-1.81-0.28-3.29-2.23-3.29L64,58.22
	c-1.95,0-2.95,1.48-2.23,3.29l6.11,15.26c6.73,0.56,13.59,1.26,20.32,1.94c6.8,0.69,16.2,1.73,26.3,2.49L122.39,61.53z
	 M113.21,99.78c-1.27-0.1-2.18,0.84-2.18,2c0,1.23,0.91,2.23,2.18,2.33c1.27,0.1,2.2-0.77,2.2-2
	C115.41,100.96,114.47,99.88,113.21,99.78z M105.04,102.37v0.96l3.83,0.33V91.6l-3.83-0.33v0.96c-0.93-0.92-2.18-1.51-3.73-1.64
	c-3.18-0.27-5.86,2.09-5.86,5.89c0,3.82,2.68,6.62,5.86,6.89C102.86,103.51,104.11,103.13,105.04,102.37z M89.82,95.28v6.73
	l3.81,0.31v-7.54c0-2.93-2.04-5.04-4.6-5.25c-1.87-0.15-3.3,0.52-4.26,1.69c-0.81-1.39-2.25-2.23-3.93-2.36
	c-1.56-0.13-2.73,0.33-3.54,1.18v-1.11l-3.83-0.31v12.06l3.83,0.31v-5.91c0-2.02,0.91-2.98,2.3-2.86c1.15,0.09,2.03,1.03,2.03,2.4
	v6.73l3.83,0.31v-5.91c0-2.02,0.93-2.97,2.35-2.86C88.93,92.98,89.82,93.91,89.82,95.28z M89.99,16.21L63.61,51.13
	c-1.18,1.56-0.54,2.83,1.41,2.83l54.2,0.01c1.95,0,2.58-1.27,1.41-2.83L94.26,16.22C93.09,14.66,91.16,14.66,89.99,16.21z
	 M40.47,15.14l15.72,33.51c0.83,1.77,2.47,1.94,3.64,0.38l25.89-34.27c1.18-1.56,0.54-2.83-1.41-2.83h-41.8
	C40.56,11.93,39.64,13.38,40.47,15.14z M16.2,53.7h34.01c1.95,0,2.87-1.44,2.04-3.21L36.73,17.47c-0.83-1.76-2.3-1.82-3.27-0.13
	L14.42,50.63C13.45,52.32,14.25,53.7,16.2,53.7z M31.63,76.42c8.94-1.15,19.87-0.87,31.41-0.04l-6.06-15.14
	c-0.73-1.81-2.91-3.29-4.86-3.29H17.53c-1.95,0-2.44,1.15-1.1,2.56L31.63,76.42z M57.37,86.94v-3.46l-14.36-0.37v3.46l5.21,0.13
	v12.64l3.94,0.1V86.81L57.37,86.94z M63.12,100.34c1.56,0.1,2.8-0.3,3.74-1.08v0.96l3.84,0.24V88.4l-3.84-0.24v0.96
	c-0.94-0.9-2.18-1.46-3.74-1.56c-3.19-0.2-5.87,2.22-5.87,6.02C57.24,97.4,59.93,100.14,63.12,100.34z M84.42,129.74l-8.93-22.29
	c-4.87-0.47-10.08-0.91-15.37-1.22l23.17,24.25C84.64,131.88,85.15,131.56,84.42,129.74z M102.81,110.29
	c-5.44-0.56-10.75-1.14-15.72-1.66c-2.1-0.22-4.35-0.46-6.72-0.7l10.36,25.85c0.73,1.81,1.92,1.81,2.65,0L102.81,110.29z
	 M118.79,111.73c-3.83-0.28-7.67-0.63-11.48-1l-7.74,19.19c-0.73,1.81-0.22,2.14,1.13,0.73L118.79,111.73z M126.39,92.72
	c-0.29-0.09-0.53-0.13-0.86-0.15c-1.97-0.12-3.28,0.84-4.15,2.23v-2.31l-3.84-0.23v12.06l3.84,0.23v-3.77
	c0-3.12,1.46-4.43,4.15-4.27l0.7,0.04L126.39,92.72z M141.49,99.18c0-3.8-2.69-6.44-5.88-6.5c-1.56-0.03-2.81,0.43-3.75,1.25v-6.2
	l-3.84-0.07v17.3l3.84,0.07v-0.96c0.94,0.86,2.19,1.36,3.75,1.39C138.8,105.52,141.49,103,141.49,99.18z M166.64,57.96h-34.5
	c-1.95,0-4.14,1.48-4.87,3.29l-8.17,20.27c9.54,0.62,19.43,0.92,28.18,0.42l20.47-21.41C169.09,59.11,168.59,57.96,166.64,57.96z
	 M169.83,50.63l-19.04-33.29c-0.97-1.69-2.44-1.63-3.27,0.13L132,50.49c-0.83,1.77,0.09,3.21,2.04,3.21h34.01
	C170,53.7,170.8,52.32,169.83,50.63z"/>
<g>
	<path class="st2" d="M99.94,11.93h41.8c1.95,0,2.87,1.44,2.04,3.21l-15.72,33.51c-0.83,1.77-2.47,1.94-3.64,0.38L98.54,14.76
		C97.36,13.21,97.99,11.93,99.94,11.93z"/>
	<path class="st3" d="M42.51,11.93h41.8c1.95,0,2.58,1.27,1.41,2.83L59.83,49.03c-1.18,1.56-2.81,1.38-3.64-0.38L40.47,15.14
		C39.64,13.38,40.56,11.93,42.51,11.93z"/>
	<path class="st4" d="M168.05,53.7h-34.01c-1.95,0-2.87-1.44-2.04-3.21l15.52-33.03c0.83-1.76,2.3-1.82,3.27-0.13l19.04,33.29
		C170.8,52.32,170,53.7,168.05,53.7z"/>
	<path class="st5" d="M94.26,16.22l26.37,34.93c1.17,1.56,0.54,2.83-1.41,2.83l-54.2-0.01c-1.95,0-2.58-1.27-1.41-2.83l26.37-34.92
		C91.16,14.66,93.09,14.66,94.26,16.22z"/>
	<path class="st6" d="M14.42,50.63l19.04-33.29c0.97-1.69,2.44-1.63,3.27,0.13l15.52,33.03c0.83,1.77-0.09,3.21-2.04,3.21H16.2
		C14.25,53.7,13.45,52.32,14.42,50.63z"/>
	<path class="st7" d="M167.74,60.52l-20.47,21.41c-8.74,0.5-18.64,0.19-28.18-0.42l8.17-20.27c0.73-1.81,2.92-3.29,4.87-3.29h34.5
		C168.59,57.96,169.09,59.11,167.74,60.52z"/>
	<path class="st7" d="M100.71,130.65c-1.35,1.41-1.86,1.08-1.13-0.73l7.74-19.19c3.81,0.37,7.65,0.71,11.48,1L100.71,130.65z"/>
	<path class="st8" d="M114.5,81.19C104.4,80.43,95,79.4,88.2,78.7c-6.73-0.68-13.59-1.38-20.32-1.94l-6.11-15.26
		c-0.73-1.81,0.28-3.29,2.23-3.29l56.17,0.02c1.95,0,2.95,1.48,2.23,3.29L114.5,81.19z"/>
	<path class="st8" d="M93.37,133.79c-0.73,1.81-1.92,1.81-2.65,0l-10.36-25.85c2.37,0.24,4.62,0.48,6.72,0.7
		c4.97,0.52,10.28,1.1,15.72,1.66L93.37,133.79z"/>
	<path class="st9" d="M16.44,60.52c-1.35-1.41-0.85-2.56,1.1-2.56h34.59c1.95,0,4.14,1.48,4.86,3.29l6.06,15.14
		c-11.54-0.84-22.47-1.12-31.41,0.04L16.44,60.52z"/>
	<path class="st9" d="M83.29,130.47l-23.17-24.25c5.3,0.32,10.51,0.76,15.37,1.22l8.93,22.29
		C85.15,131.56,84.64,131.88,83.29,130.47z"/>
</g>
<path class="st0" d="M66.86,89.12c-0.94-0.9-2.18-1.46-3.74-1.56c-3.19-0.2-5.87,2.22-5.87,6.02c0,3.82,2.68,6.56,5.87,6.76
	c1.56,0.1,2.8-0.3,3.74-1.08v0.96l3.84,0.24V88.4l-3.84-0.24V89.12z M63.91,97.12c-1.68-0.11-2.9-1.43-2.9-3.31
	c0-1.85,1.22-3.05,2.9-2.94c1.56,0.1,2.95,1.46,2.95,3.31C66.86,96.06,65.47,97.22,63.91,97.12z M93.62,94.78v7.54l-3.81-0.31v-6.73
	c0-1.37-0.89-2.31-2.01-2.4c-1.41-0.12-2.35,0.84-2.35,2.86v5.91l-3.83-0.31v-6.73c0-1.37-0.89-2.31-2.03-2.4
	c-1.39-0.11-2.3,0.85-2.3,2.86v5.91l-3.83-0.31V88.62l3.83,0.31v1.11c0.81-0.85,1.99-1.3,3.54-1.18c1.68,0.14,3.11,0.97,3.93,2.36
	c0.96-1.17,2.39-1.85,4.26-1.69C91.59,89.73,93.62,91.85,93.62,94.78z M57.37,86.94l-5.21-0.13v12.64l-3.94-0.1V86.71l-5.21-0.13
	v-3.46l14.36,0.37V86.94z M105.04,92.24c-0.93-0.92-2.18-1.51-3.73-1.64c-3.18-0.27-5.86,2.09-5.86,5.89c0,3.82,2.68,6.62,5.86,6.89
	c1.56,0.13,2.8-0.24,3.73-1v0.96l3.83,0.33V91.6l-3.83-0.33V92.24z M102.1,100.17c-1.67-0.14-2.9-1.5-2.9-3.37
	c0-1.85,1.22-3.02,2.9-2.87c1.56,0.13,2.94,1.53,2.94,3.38C105.04,99.18,103.65,100.31,102.1,100.17z M135.61,92.69
	c-1.56-0.03-2.81,0.43-3.75,1.25v-6.2l-3.84-0.07v17.3l3.84,0.07v-0.96c0.94,0.86,2.19,1.36,3.75,1.39
	c3.19,0.06,5.88-2.46,5.88-6.28C141.49,95.39,138.8,92.74,135.61,92.69z M134.81,102.18c-1.56-0.03-2.95-1.3-2.95-3.18
	c0-1.85,1.39-3.1,2.95-3.07c1.68,0.03,2.91,1.33,2.91,3.18C137.72,100.99,136.49,102.21,134.81,102.18z M125.52,92.57
	c0.34,0.02,0.58,0.06,0.86,0.15l-0.17,3.83l-0.7-0.04c-2.69-0.16-4.15,1.14-4.15,4.27v3.77l-3.84-0.23V92.26l3.84,0.23v2.31
	C122.24,93.41,123.56,92.45,125.52,92.57z M115.41,102.11c0,1.23-0.93,2.09-2.2,2c-1.27-0.1-2.18-1.1-2.18-2.33
	c0-1.15,0.91-2.09,2.18-2C114.47,99.88,115.41,100.96,115.41,102.11z"/>
</svg>
